# xmcd
#
# Track frame offsets:
#	150
#	17867
#	33251
#	49739
#	61723
#	76124
#	92678
#	109263
#	128669
#	144575
#	160056
#	178470
#	192729
#	210178
#	228902
#	247379
#	266726
#
# Disc length: 3812 seconds
#
# Revision: 10
# Processed by: cddbd v1.5PL3 Copyright (c) Steve Scherf et al.
# Submitted via: AudioConverter v4.2 Copyright (c) Dennis Rebentrost
#
DISCID=eb0ee211
DTITLE=Kenny Chesney - Greatest Hits
DYEAR=2000
DGENRE=Country
TTITLE0=I Lost It
TTITLE1=Don't Happen Twice
TTITLE2=The Tin Man
TTITLE3=Fall In Love (Remix)
TTITLE4=All I Need To Know
TTITLE5=For The First Time
TTITLE6=Me And You
TTITLE7=Back Where I Come From (Live Version)
TTITLE8=When I Close My Eyes
TTITLE9=She's Got It All
TTITLE10=That's Why I'm Here
TTITLE11=How Forever Feels
TTITLE12=You Had Me From Hello
TTITLE13=She Thinks My Tractor's Sexy
TTITLE14=What I Need To Do
TTITLE15=Baptism (Duet with Randy Travis)
TTITLE16=Because Of Your Love
EXTD=YEAR: 2000 ID3G:   2
EXTT0=
EXTT1=
EXTT2=
EXTT3=
EXTT4=
EXTT5=
EXTT6=
EXTT7=
EXTT8=
EXTT9=
EXTT10=
EXTT11=
EXTT12=
EXTT13=
EXTT14=
EXTT15=
EXTT16=
PLAYORDER=
